<svg width="355" height="315" xmlns="http://www.w3.org/2000/svg" xmlns:xlink="http://www.w3.org/1999/xlink" overflow="hidden"><defs><filter id="fx0" x="-10%" y="-10%" width="120%" height="120%" filterUnits="userSpaceOnUse" primitiveUnits="userSpaceOnUse"><feComponentTransfer color-interpolation-filters="sRGB"><feFuncR type="discrete" tableValues="0 0"/><feFuncG type="discrete" tableValues="0 0"/><feFuncB type="discrete" tableValues="0 0"/><feFuncA type="linear" slope="0.4" intercept="0"/></feComponentTransfer><feGaussianBlur stdDeviation="1.01096 1.01096"/></filter><clipPath id="clip1"><rect x="418" y="240" width="355" height="315"/></clipPath><clipPath id="clip2"><rect x="475" y="241" width="236" height="200"/></clipPath><clipPath id="clip3"><rect x="475" y="241" width="236" height="201"/></clipPath><clipPath id="clip4"><rect x="475" y="241" width="236" height="201"/></clipPath><clipPath id="clip5"><rect x="50" y="31" width="279" height="62"/></clipPath><clipPath id="clip6"><rect x="0" y="0" width="357" height="160"/></clipPath></defs><g clip-path="url(#clip1)" transform="translate(-418 -240)"><g clip-path="url(#clip2)"><g clip-path="url(#clip3)"><g clip-path="url(#clip4)"><path d="M608.408 400.281C605.992 401.213 603.524 401.973 600.983 402.583 596.816 403.586 592.508 404.134 588.13 404.209 555.648 404.749 528.896 379.078 528.359 346.882 527.823 314.679 553.713 288.138 586.195 287.598 618.676 287.057 645.432 312.732 645.969 344.932 646.239 361.232 639.707 376.568 628.134 387.721 626.529 389.256 626.493 391.798 628.052 393.388 629.607 394.966 632.164 395.005 633.766 393.459 646.909 380.801 654.354 363.342 654.048 344.795 653.441 308.17 622.996 278.978 586.062 279.593 549.123 280.204 519.669 310.394 520.276 347.011 520.883 383.637 551.324 412.825 588.263 412.21 593.24 412.127 598.124 411.505 602.874 410.365 605.757 409.68 608.584 408.806 611.326 407.749 613.405 406.95 614.439 404.624 613.632 402.564 612.837 400.504 610.488 399.486 608.408 400.281Z" fill="#1296DB"/><path d="M618.829 395.041C618.046 395.538 617.239 396.012 616.397 396.498 614.466 397.598 613.816 400.057 614.921 401.965 616.037 403.888 618.508 404.546 620.439 403.429 621.383 402.893 622.287 402.352 623.176 401.788 625.052 400.606 625.6 398.127 624.406 396.255 623.204 394.406 620.705 393.854 618.829 395.041Z" fill="#1296DB"/><path d="M586.445 299.484C585.396 299.546 584.335 299.566 583.242 299.581 580.696 299.613 578.699 301.681 578.742 304.195 578.793 306.721 580.884 308.738 583.403 308.706 584.628 308.695 585.831 308.652 587.029 308.589 589.551 308.456 591.47 306.302 591.317 303.78 591.149 301.273 588.975 299.343 586.445 299.484Z" fill="#1296DB"/><path d="M548.575 338.169C551.121 325.323 560.477 314.71 573.291 310.668 575.707 309.905 577.046 307.332 576.294 304.939 575.539 302.538 572.958 301.215 570.542 301.978 554.489 307.042 542.744 320.349 539.564 336.453 539.078 338.932 540.696 341.313 543.182 341.791 545.677 342.265 548.089 340.644 548.575 338.169" fill="#1296DB"/><path d="M505.288 394.101C501.846 386.327 505.606 379.497 516.9 369.953 518.596 368.535 521.193 368.95 522.551 370.701 523.895 372.452 523.546 374.958 521.788 376.317 510.787 384.753 510.505 388.591 512.635 390.819 518.518 396.964 564.303 381.228 594.74 367.439 632.775 350.223 669.678 321.078 666.98 314.546 665.789 311.667 663.847 309.063 650.156 311.217 647.994 311.557 645.891 310.073 645.55 307.872 645.209 305.714 646.686 303.537 648.902 303.318 663.631 301.677 672.948 304.406 674.566 312.752 676.649 323.482 661.446 341.873 598.927 374.253 512.776 413.792 505.288 394.101 505.288 394.101Z" fill="#1296DB"/><path d="M639.323 264.327C635.219 264.327 631.878 267.672 631.878 271.772 631.878 275.884 635.223 279.221 639.323 279.221 643.431 279.221 646.772 275.884 646.772 271.772 646.772 267.672 643.431 264.327 639.323 264.327ZM639.323 275.911C637.04 275.911 635.188 274.055 635.188 271.772 635.188 269.489 637.04 267.636 639.323 267.636 641.606 267.636 643.463 269.489 643.463 271.772 643.463 274.059 641.606 275.911 639.323 275.911Z" fill="#1296DB"/></g></g></g><g clip-path="url(#clip5)" filter="url(#fx0)" transform="translate(417 396)"><g clip-path="url(#clip6)"><path d="M5.20312-3.09375C5.64844-4.875 6.26953-6.85547 7.06641-9.03516 7.86328-11.2148 8.7832-13.4883 9.82617-15.8555 10.8691-18.2227 12.0176-20.625 13.2715-23.0625 14.5254-25.5 15.8262-27.873 17.1738-30.1816 18.5215-32.4902 19.9043-34.6699 21.3223-36.7207 22.7402-38.7715 24.1406-40.6055 25.5234-42.2227 25.9219-42.668 26.4199-43.2188 27.0176-43.875 27.6152-44.5312 28.2832-45.2109 29.0215-45.9141 29.7598-46.6172 30.5332-47.3145 31.3418-48.0059 32.1504-48.6973 32.9648-49.3184 33.7852-49.8691 34.6055-50.4199 35.4023-50.8652 36.1758-51.2051 36.9492-51.5449 37.6641-51.7148 38.3203-51.7148 39.2109-51.7148 40.0254-51.5625 40.7637-51.2578 41.502-50.9531 42.1348-50.5195 42.6621-49.957 43.1895-49.3945 43.5996-48.7207 43.8926-47.9355 44.1855-47.1504 44.332-46.2891 44.332-45.3516 44.332-44.9531 44.3027-44.5547 44.2441-44.1562 44.1855-43.7578 44.1094-43.3477 44.0156-42.9258L40.1133-23.3086C40.4648-23.8477 40.957-24.5801 41.5898-25.5059 42.2227-26.4316 42.9375-27.4629 43.7344-28.5996 44.5312-29.7363 45.3633-30.9199 46.2305-32.1504 47.0977-33.3809 47.9473-34.5703 48.7793-35.7188 49.6113-36.8672 50.3789-37.916 51.082-38.8652 51.7852-39.8145 52.3594-40.582 52.8047-41.168L53.4375-41.9766C53.8594-42.5156 54.375-43.1484 54.9844-43.875 55.5937-44.6016 56.2676-45.3633 57.0059-46.1602 57.7441-46.957 58.5234-47.7422 59.3438-48.5156 60.1641-49.2891 60.9961-49.9805 61.8398-50.5898 62.6836-51.1992 63.5156-51.6973 64.3359-52.084 65.1562-52.4707 65.9414-52.6641 66.6914-52.6641 67.2539-52.6641 67.7227-52.5352 68.0977-52.2773 68.4727-52.0195 68.7773-51.6738 69.0117-51.2402 69.2461-50.8066 69.4102-50.2969 69.5039-49.7109 69.5977-49.125 69.6445-48.5156 69.6445-47.8828 69.6445-46.8984 69.5625-45.9023 69.3984-44.8945 69.2344-43.8867 69.0469-42.9727 68.8359-42.1523 68.7188-41.4961 68.5605-40.5586 68.3613-39.3398 68.1621-38.1211 67.9277-36.7207 67.6582-35.1387 67.3887-33.5566 67.1016-31.8457 66.7969-30.0059 66.4922-28.166 66.1816-26.2969 65.8652-24.3984 65.5488-22.5 65.2324-20.625 64.916-18.7734 64.5996-16.9219 64.3066-15.1934 64.0371-13.5879 63.7676-11.9824 63.5215-10.5469 63.2988-9.28125 63.0762-8.01562 62.8945-7.03125 62.7539-6.32812 62.6836-6 62.5723-5.55469 62.4199-4.99219 62.2676-4.42969 62.0449-3.87891 61.752-3.33984 61.459-2.80078 61.0723-2.33203 60.5918-1.93359 60.1113-1.53516 59.5195-1.33594 58.8164-1.33594 58.4414-1.33594 58.084-1.45898 57.7441-1.70508 57.4043-1.95117 57.0996-2.26172 56.8301-2.63672 56.5605-3.01172 56.3496-3.41602 56.1973-3.84961 56.0449-4.2832 55.957-4.67578 55.9336-5.02734L63.2461-39.7617C63.3164-40.0898 63.375-40.3828 63.4219-40.6406 63.4687-40.8984 63.4922-41.1445 63.4922-41.3789 63.4922-41.6367 63.4629-41.8711 63.4043-42.082 63.3457-42.293 63.293-42.4922 63.2461-42.6797 63.1758-42.8906 63.1055-43.0781 63.0352-43.2422 61.9805-42.4453 60.8496-41.4316 59.6426-40.2012 58.4355-38.9707 57.2168-37.5996 55.9863-36.0879 54.7559-34.5762 53.5254-32.9707 52.2949-31.2715 51.0644-29.5723 49.8984-27.8672 48.7969-26.1562 47.9297-24.8203 46.998-23.4141 46.002-21.9375 45.0059-20.4609 44.0039-18.9785 42.9961-17.4902 41.9883-16.002 41.0098-14.5137 40.0605-13.0254 39.1113-11.5371 38.25-10.1133 37.4766-8.75391 37.1016-8.09766 36.7148-7.25391 36.3164-6.22266 35.918-5.19141 35.4785-4.18359 34.998-3.19922 34.5176-2.21484 34.002-1.37109 33.4512-0.667969 32.9004 0.0351562 32.2734 0.386719 31.5703 0.386719 31.0312 0.386719 30.5801 0.304687 30.2168 0.140625 29.8535-0.0234375 29.5664-0.240234 29.3555-0.509766 29.1445-0.779297 28.9922-1.0957 28.8984-1.45898 28.8047-1.82227 28.7578-2.21484 28.7578-2.63672 28.7578-3.17578 28.8105-3.71484 28.916-4.25391 29.0215-4.79297 29.1328-5.30859 29.25-5.80078 29.7422-7.86328 30.2578-9.91406 30.7969-11.9531 31.3359-13.9922 31.8926-16.0781 32.4668-18.2109 33.041-20.3438 33.6328-22.5527 34.2422-24.8379 34.8516-27.123 35.4727-29.5547 36.1055-32.1328 36.2695-32.8594 36.457-33.6738 36.668-34.5762 36.8789-35.4785 37.0781-36.3926 37.2656-37.3184 37.4531-38.2441 37.6055-39.1406 37.7227-40.0078 37.8398-40.875 37.8984-41.6484 37.8984-42.3281 37.8984-42.9375 37.8516-43.4238 37.7578-43.7871 37.6641-44.1504 37.4883-44.332 37.2305-44.332 36.3633-44.332 35.4492-44.0098 34.4883-43.3652 33.5273-42.7207 32.5547-41.8711 31.5703-40.8164 30.5859-39.7617 29.6133-38.5547 28.6523-37.1953 27.6914-35.8359 26.7773-34.4355 25.9102-32.9941 25.043-31.5527 24.2344-30.1289 23.4844-28.7227 22.7344-27.3164 22.0898-26.0508 21.5508-24.9258 21.4336-24.6914 21.2637-24.3691 21.041-23.959 20.8184-23.5488 20.5254-22.9746 20.1621-22.2363 19.7988-21.498 19.3535-20.5547 18.8262-19.4062 18.2988-18.2578 17.6777-16.8047 16.9629-15.0469 16.248-13.2891 15.4219-11.1914 14.4844-8.75391 13.5469-6.31641 12.4922-3.45703 11.3203-0.175781 11.1094 0.386719 10.7402 0.84375 10.2129 1.19531 9.68555 1.54687 9.14062 1.72266 8.57812 1.72266 7.35937 1.72266 6.46289 1.39453 5.88867 0.738281 5.31445 0.0820313 5.02734-0.726562 5.02734-1.6875 5.02734-2.10938 5.08594-2.57812 5.20312-3.09375ZM73.0651-13.5703C73.0651-14.5781 73.3346-15.4336 73.8737-16.1367 74.4128-16.8398 75.1276-17.3086 76.0182-17.543 76.276-18.0586 76.6745-18.7559 77.2135-19.6348 77.7526-20.5137 78.4206-21.4688 79.2175-22.5 80.0143-23.5312 80.9225-24.5684 81.9421-25.6113 82.9616-26.6543 84.0866-27.6035 85.3171-28.459 86.5475-29.3145 87.8717-30.0117 89.2897-30.5508 90.7077-31.0898 92.2135-31.3594 93.8073-31.3594 95.1667-31.3594 96.3503-31.1953 97.3581-30.8672 98.3659-30.5391 99.1979-30.082 99.8542-29.4961 100.51-28.9102 101.003-28.2129 101.331-27.4043 101.659-26.5957 101.823-25.7227 101.823-24.7852 101.823-23.9883 101.717-23.2266 101.507-22.5 101.178-21.1875 100.569-20.0391 99.6784-19.0547 98.7878-18.0703 97.7389-17.209 96.5319-16.4707 95.3249-15.7324 94.0124-15.1172 92.5944-14.625 91.1764-14.1328 89.7585-13.7227 88.3405-13.3945 86.9225-13.0664 85.5573-12.8145 84.2448-12.6387 82.9323-12.4629 81.7956-12.3281 80.8346-12.2344 80.6237-11.8125 80.4421-11.2793 80.2897-10.6348 80.1374-9.99023 80.0612-9.36328 80.0612-8.75391 80.0612-7.39453 80.6003-6.33984 81.6784-5.58984 82.7565-4.83984 84.2448-4.46484 86.1432-4.46484 87.2448-4.46484 88.2995-4.58789 89.3073-4.83398 90.3151-5.08008 91.2702-5.39648 92.1725-5.7832 93.0749-6.16992 93.9245-6.5918 94.7214-7.04883 95.5182-7.50586 96.2448-7.95703 96.901-8.40234 97.7448-8.96484 98.5475-9.43945 99.3092-9.82617 100.071-10.2129 100.745-10.4062 101.331-10.4062 101.917-10.4062 102.292-10.2598 102.456-9.9668 102.62-9.67383 102.702-9.36328 102.702-9.03516 102.702-8.84766 102.696-8.66602 102.684-8.49023 102.673-8.31445 102.655-8.16797 102.632-8.05078 102.514-7.44141 102.28-6.83203 101.928-6.22266 101.577-5.61328 101.132-5.08594 100.592-4.64062 98.155-2.71875 95.653-1.34766 93.0866-0.527344 90.5202 0.292969 87.7839 0.703125 84.8776 0.703125 84.3151 0.703125 83.653 0.667969 82.8913 0.597656 82.1296 0.527344 81.3385 0.386719 80.5182 0.175781 79.6979-0.0351562 78.8893-0.339844 78.0925-0.738281 77.2956-1.13672 76.5866-1.66406 75.9655-2.32031 75.3444-2.97656 74.8405-3.78516 74.4538-4.74609 74.0671-5.70703 73.8737-6.86719 73.8737-8.22656 73.8737-9.32812 74.026-10.5586 74.3307-11.918 74.026-11.9648 73.7389-12.123 73.4694-12.3926 73.1999-12.6621 73.0651-13.0547 73.0651-13.5703ZM95.0729-23.3086C95.1198-23.4258 95.1432-23.5312 95.1432-23.625 95.1432-23.7188 95.1432-23.8242 95.1432-23.9414 95.1432-24.5742 94.9089-25.0488 94.4401-25.3652 93.9714-25.6816 93.4089-25.8398 92.7526-25.8398 91.7214-25.8398 90.7077-25.5703 89.7116-25.0312 88.7155-24.4922 87.778-23.8184 86.8991-23.0098 86.0202-22.2012 85.2409-21.334 84.5612-20.4082 83.8815-19.4824 83.3542-18.6445 82.9792-17.8945 84.6667-18.0352 86.2135-18.2637 87.6198-18.5801 89.026-18.8965 90.2507-19.2949 91.2936-19.7754 92.3366-20.2559 93.1803-20.7949 93.8249-21.3926 94.4694-21.9902 94.8854-22.6289 95.0729-23.3086ZM109.901-6.22266C110.089-6.22266 110.258-6.19922 110.411-6.15234 110.563-6.10547 110.733-6.05273 110.921-5.99414 111.108-5.93555 111.319-5.88281 111.553-5.83594 111.788-5.78906 112.092-5.76562 112.467-5.76562 113.569-5.76562 114.794-5.88281 116.141-6.11719 117.489-6.35156 118.76-6.65625 119.956-7.03125 121.151-7.40625 122.176-7.83398 123.032-8.31445 123.887-8.79492 124.374-9.29297 124.491-9.80859 124.561-10.0898 124.596-10.3359 124.596-10.5469 124.596-10.9453 124.403-11.3262 124.016-11.6895 123.63-12.0527 123.143-12.3984 122.557-12.7266 121.971-13.0547 121.339-13.3594 120.659-13.6406 119.979-13.9219 119.346-14.1797 118.76-14.4141L117.565-14.9062C116.956-15.1406 116.358-15.4277 115.772-15.7676 115.186-16.1074 114.641-16.5 114.137-16.9453 113.633-17.3906 113.188-17.9121 112.801-18.5098 112.415-19.1074 112.128-19.793 111.94-20.5664 111.846-20.8945 111.77-21.2227 111.712-21.5508 111.653-21.8789 111.624-22.2305 111.624-22.6055 111.624-23.2148 111.829-23.9121 112.239-24.6973 112.649-25.4824 113.2-26.2617 113.891-27.0352 114.583-27.8086 115.368-28.5469 116.247-29.25 117.126-29.9531 118.046-30.5391 119.007-31.0078 119.71-31.5 120.389-31.9453 121.046-32.3438 121.702-32.7422 122.364-33.082 123.032-33.3633 123.7-33.6445 124.38-33.8672 125.071-34.0312 125.762-34.1953 126.495-34.2773 127.268-34.2773 127.971-34.2773 128.733-34.2422 129.553-34.1719 130.374-34.1016 131.124-33.9375 131.803-33.6797 132.483-33.4219 133.051-33.041 133.508-32.5371 133.965-32.0332 134.194-31.3594 134.194-30.5156 134.194-30.2578 134.159-29.918 134.089-29.4961 134.018-29.0742 133.901-28.6523 133.737-28.2305 133.573-27.8086 133.374-27.4453 133.139-27.1406 132.905-26.8359 132.624-26.6836 132.296-26.6836 131.757-26.6836 131.311-26.7891 130.96-27 130.608-27.2109 130.292-27.4395 130.01-27.6855 129.729-27.9316 129.436-28.1602 129.132-28.3711 128.827-28.582 128.452-28.6875 128.007-28.6875 127.467-28.6875 126.84-28.5879 126.126-28.3887 125.411-28.1895 124.678-27.9199 123.928-27.5801 123.178-27.2402 122.446-26.8477 121.731-26.4023 121.016-25.957 120.372-25.5 119.798-25.0312 119.223-24.5625 118.76-24.0996 118.409-23.6426 118.057-23.1855 117.882-22.7695 117.882-22.3945 117.882-21.9961 118.01-21.668 118.268-21.4102 118.526-21.1523 118.854-20.9297 119.253-20.7422 119.768-20.4609 120.36-20.1797 121.028-19.8984 121.696-19.6172 122.37-19.3359 123.049-19.0547 123.729-18.7734 124.391-18.4922 125.036-18.2109 125.68-17.9297 126.237-17.6719 126.706-17.4375 127.339-17.1094 127.907-16.7871 128.411-16.4707 128.915-16.1543 129.342-15.8086 129.694-15.4336 130.046-15.0586 130.315-14.6367 130.503-14.168 130.69-13.6992 130.784-13.1484 130.784-12.5156 130.784-12.2109 130.76-11.9062 130.714-11.6016 130.667-11.2969 130.596-10.9453 130.503-10.5469 130.432-10.1953 130.309-9.78516 130.133-9.31641 129.958-8.84766 129.77-8.38477 129.571-7.92773 129.372-7.4707 129.167-7.06055 128.956-6.69727 128.745-6.33398 128.569-6.09375 128.428-5.97656 127.514-5.13281 126.436-4.3418 125.194-3.60352 123.952-2.86523 122.657-2.2207 121.309-1.66992 119.962-1.11914 118.614-0.679687 117.266-0.351562 115.919-0.0234375 114.682 0.140625 113.557 0.140625 112.995 0.140625 112.374 0.0292969 111.694-0.193359 111.014-0.416016 110.387-0.708984 109.813-1.07227 109.239-1.43555 108.758-1.85156 108.372-2.32031 107.985-2.78906 107.792-3.25781 107.792-3.72656 107.792-3.96094 107.862-4.22461 108.003-4.51758 108.143-4.81055 108.319-5.08008 108.53-5.32617 108.741-5.57227 108.969-5.7832 109.215-5.95898 109.462-6.13477 109.69-6.22266 109.901-6.22266ZM163.148 2.00391C161.695 2.00391 160.699 1.6875 160.16 1.05469 159.621 0.421875 159.352-0.445312 159.352-1.54688 159.352-2.13281 159.41-2.76562 159.527-3.44531 159.645-4.125 159.797-4.82812 159.984-5.55469 160.312-6.79687 160.682-8.0332 161.092-9.26367 161.502-10.4941 161.912-11.7363 162.322-12.9902 162.732-14.2441 163.131-15.498 163.518-16.752 163.904-18.0059 164.25-19.2656 164.555-20.5312 164.578-20.6484 164.59-20.8008 164.59-20.9883 164.59-21.3164 164.508-21.5742 164.344-21.7617 164.18-21.9492 163.934-22.043 163.605-22.043 163.09-22.043 162.533-21.9375 161.936-21.7266 161.338-21.5156 160.84-21.2812 160.441-21.0234 158.871-19.9688 157.494-18.9258 156.311-17.8945 155.127-16.8633 154.043-15.7852 153.059-14.6602 152.074-13.5352 151.143-12.334 150.264-11.0566 149.385-9.7793 148.465-8.37891 147.504-6.85547 146.684-5.33203 146.074-4.03711 145.676-2.9707 145.277-1.9043 144.908-1.04297 144.568-0.386719 144.229 0.269531 143.848 0.744141 143.426 1.03711 143.004 1.33008 142.371 1.47656 141.527 1.47656 140.59 1.47656 139.928 1.20703 139.541 0.667969 139.154 0.128906 138.961-0.574219 138.961-1.44141 138.961-2.12109 139.066-2.88281 139.277-3.72656L150.879-50.2031C150.949-50.4844 151.066-50.7891 151.23-51.1172 151.395-51.4453 151.617-51.75 151.898-52.0312 152.18-52.3125 152.514-52.5469 152.9-52.7344 153.287-52.9219 153.727-53.0156 154.219-53.0156 154.594-53.0156 154.992-52.998 155.414-52.9629 155.836-52.9277 156.217-52.8574 156.557-52.752 156.896-52.6465 157.178-52.4766 157.4-52.2422 157.623-52.0078 157.734-51.7031 157.734-51.3281 157.734-51.2344 157.711-51.041 157.664-50.748 157.617-50.4551 157.547-50.1211 157.453-49.7461 156.188-44.6602 154.834-39.3633 153.393-33.8555 151.951-28.3477 150.492-22.7812 149.016-17.1562 150.445-18.9141 151.934-20.5254 153.48-21.9902 155.027-23.4551 156.615-24.7148 158.244-25.7695 159.873-26.8242 161.561-27.6504 163.307-28.248 165.053-28.8457 166.863-29.1445 168.738-29.1445 169.934-29.1445 170.859-28.7637 171.516-28.002 172.172-27.2402 172.5-26.2734 172.5-25.1016 172.5-24.5625 172.43-24.0352 172.289-23.5195 172.008-22.4414 171.691-21.3809 171.34-20.3379 170.988-19.2949 170.625-18.2461 170.25-17.1914 169.875-16.1367 169.5-15.0645 169.125-13.9746 168.75-12.8848 168.422-11.7656 168.141-10.6172 167.766-9.14062 167.508-7.74023 167.367-6.41602 167.227-5.0918 167.133-4.03125 167.086-3.23438 167.039-2.55469 166.934-1.89844 166.77-1.26562 166.605-0.632812 166.365-0.0761719 166.049 0.404297 165.732 0.884766 165.334 1.27148 164.854 1.56445 164.373 1.85742 163.805 2.00391 163.148 2.00391ZM183.725-20.1797C183.936-21.0938 184.188-22.1074 184.481-23.2207 184.774-24.334 185.09-25.4883 185.43-26.6836 185.77-27.8789 186.116-29.0859 186.467-30.3047 186.819-31.5234 187.165-32.6953 187.505-33.8203 187.844-34.9453 188.155-35.9941 188.436-36.9668 188.717-37.9395 188.964-38.7656 189.174-39.4453 189.62-40.9688 190.042-42.498 190.44-44.0332 190.839-45.5684 191.225-47.1797 191.6-48.8672 192.069-49.7812 192.702-50.4316 193.499-50.8184 194.296-51.2051 195.163-51.3984 196.1-51.3984 196.85-51 197.442-50.4551 197.876-49.7637 198.309-49.0723 198.526-48.293 198.526-47.4258 198.526-46.8164 198.426-46.1191 198.227-45.334 198.028-44.5488 197.776-43.7051 197.471-42.8027 197.167-41.9004 196.827-40.9512 196.452-39.9551 196.077-38.959 195.714-37.9336 195.362-36.8789 194.706-34.957 194.049-33.0352 193.393-31.1133 192.737-29.1914 192.092-27.1641 191.46-25.0312 191.296-24.4687 191.12-23.9062 190.932-23.3438 190.745-22.7812 190.551-22.1719 190.352-21.5156 190.153-20.8594 189.936-20.127 189.702-19.3184 189.467-18.5098 189.233-17.5781 188.999-16.5234 188.717-15.2812 188.471-14.0332 188.26-12.7793 188.049-11.5254 187.85-10.2656 187.663-9 187.475-7.73437 187.264-6.45703 187.03-5.16797 186.796-3.87891 186.514-2.57812 186.186-1.26562 186.069-0.796875 185.864-0.380859 185.571-0.0175781 185.278 0.345703 184.944 0.65625 184.569 0.914062 184.194 1.17188 183.796 1.37109 183.374 1.51172 182.952 1.65234 182.553 1.72266 182.178 1.72266 181.803 1.72266 181.446 1.69336 181.106 1.63477 180.766 1.57617 180.503 1.44141 180.315 1.23047 180.034 0.925781 179.811 0.585937 179.647 0.210938 179.483-0.164062 179.401-0.5625 179.401-0.984375 179.401-1.10156 179.407-1.21289 179.419-1.31836 179.43-1.42383 179.448-1.53516 179.471-1.65234ZM224.518-28.8633C223.698-28.8633 222.819-28.6699 221.882-28.2832 220.944-27.8965 219.971-27.375 218.964-26.7188 217.956-26.0625 216.93-25.3184 215.887-24.4863 214.844-23.6543 213.819-22.793 212.811-21.9023 212.296-21.457 211.803-21.0527 211.335-20.6895 210.866-20.3262 210.397-20.0508 209.928-19.8633 209.6-19.3242 209.255-18.6152 208.891-17.7363 208.528-16.8574 208.171-15.8965 207.819-14.8535 207.467-13.8105 207.133-12.7441 206.817-11.6543 206.501-10.5645 206.237-9.55078 206.026-8.61328 205.909-8.12109 205.815-7.64062 205.745-7.17188 205.674-6.70312 205.592-6.20508 205.499-5.67773 205.405-5.15039 205.294-4.58203 205.165-3.97266 205.036-3.36328 204.878-2.68359 204.69-1.93359 204.573-1.48828 204.385-1.13086 204.128-0.861328 203.87-0.591797 203.6-0.386719 203.319-0.246094 203.038-0.105469 202.768-0.0175781 202.51 0.0175781 202.253 0.0527344 202.053 0.0703125 201.913 0.0703125 201.022 0.0703125 200.296-0.140625 199.733-0.5625 199.171-0.984375 198.889-1.80469 198.889-3.02344 198.889-3.35156 198.901-3.69727 198.924-4.06055 198.948-4.42383 199.018-4.82812 199.135-5.27344 199.651-7.5 200.149-9.50391 200.63-11.2852 201.11-13.0664 201.596-14.7187 202.089-16.2422 202.581-17.7656 203.079-19.2012 203.583-20.5488 204.087-21.8965 204.602-23.2559 205.13-24.627 205.657-25.998 206.208-27.416 206.782-28.8809 207.356-30.3457 207.971-31.9687 208.628-33.75 208.768-34.1484 209.137-34.4824 209.735-34.752 210.333-35.0215 210.971-35.1562 211.651-35.1562 212.542-35.1562 213.274-34.957 213.848-34.5586 214.423-34.1602 214.71-33.5859 214.71-32.8359 214.71-32.7656 214.686-32.6367 214.639-32.4492 214.592-32.2617 214.522-32.0625 214.428-31.8516L212.882-28.1953C213.866-28.9687 214.891-29.7422 215.958-30.5156 217.024-31.2891 218.12-31.9863 219.245-32.6074 220.37-33.2285 221.501-33.7324 222.637-34.1191 223.774-34.5059 224.893-34.6992 225.995-34.6992 228.245-34.6992 230.003-34.0957 231.268-32.8887 232.534-31.6816 233.167-29.8125 233.167-27.2812 233.167-25.8281 232.915-24.1758 232.411-22.3242 231.907-20.4727 231.274-18.4863 230.512-16.3652 229.751-14.2441 228.93-12.0176 228.051-9.68555 227.173-7.35352 226.358-4.98047 225.608-2.56641 225.397-1.91016 225.18-1.35937 224.958-0.914062 224.735-0.46875 224.471-0.111328 224.167 0.158203 223.862 0.427734 223.505 0.621094 223.094 0.738281 222.684 0.855469 222.186 0.914062 221.6 0.914062 220.686 0.914062 220.053 0.744141 219.702 0.404297 219.35 0.0644531 219.174-0.480469 219.174-1.23047 219.174-1.88672 219.274-2.68945 219.473-3.63867 219.673-4.58789 219.954-5.63086 220.317-6.76758 220.68-7.9043 221.102-9.11719 221.583-10.4062 222.063-11.6953 222.585-13.0078 223.147-14.3438 223.592-15.4219 224.032-16.5 224.465-17.5781 224.899-18.6562 225.286-19.6992 225.626-20.707 225.965-21.7148 226.241-22.6758 226.452-23.5898 226.663-24.5039 226.768-25.3477 226.768-26.1211 226.768-26.8477 226.61-27.4863 226.294-28.0371 225.977-28.5879 225.385-28.8633 224.518-28.8633ZM246 3.23438C245.414 3.23437 244.893 3.12305 244.436 2.90039 243.979 2.67773 243.592 2.37305 243.275 1.98633 242.959 1.59961 242.713 1.16016 242.537 0.667969 242.361 0.175781 242.273-0.351562 242.273-0.914062 242.273-1.3125 242.32-1.75195 242.414-2.23242 242.508-2.71289 242.648-3.29297 242.836-3.97266 242.906-4.27734 243.012-4.73438 243.152-5.34375 243.293-5.95312 243.434-6.64453 243.574-7.41797 243.715-8.19141 243.861-9.01172 244.014-9.87891 244.166-10.7461 244.307-11.5898 244.436-12.4102 244.564-13.2305 244.664-13.9922 244.734-14.6953 244.805-15.3984 244.84-15.9844 244.84-16.4531 244.84-16.7578 244.828-16.957 244.805-17.0508 244.758-17.4023 244.506-17.6426 244.049-17.7715 243.592-17.9004 243.1-18.041 242.572-18.1934 242.045-18.3457 241.564-18.5918 241.131-18.9316 240.697-19.2715 240.48-19.8281 240.48-20.6016 240.48-21.2344 240.627-21.832 240.92-22.3945 241.213-22.957 241.594-23.3555 242.062-23.5898 242.602-23.8477 243.205-23.9883 243.873-24.0117 244.541-24.0352 245.203-24.1055 245.859-24.2227 246.234-24.2695 246.498-24.4922 246.65-24.8906 246.803-25.2891 246.926-25.6758 247.02-26.0508 247.301-27.1289 247.605-28.2949 247.934-29.5488 248.262-30.8027 248.643-32.0801 249.076-33.3809 249.51-34.6816 249.99-35.9531 250.518-37.1953 251.045-38.4375 251.637-39.5859 252.293-40.6406 253.348-42.0703 254.479-43.4062 255.686-44.6484 256.893-45.8906 258.182-46.9746 259.553-47.9004 260.924-48.8262 262.377-49.5527 263.912-50.0801 265.447-50.6074 267.082-50.8711 268.816-50.8711 270.902-50.8711 272.602-50.5195 273.914-49.8164 275.227-49.1133 276.293-48.0586 277.113-46.6523 277.301-46.3242 277.43-45.9902 277.5-45.6504 277.57-45.3105 277.605-44.9648 277.605-44.6133 277.605-43.9805 277.518-43.3887 277.342-42.8379 277.166-42.2871 276.926-41.8066 276.621-41.3965 276.316-40.9863 275.959-40.6641 275.549-40.4297 275.139-40.1953 274.711-40.0781 274.266-40.0781 273.633-40.0781 273.141-40.207 272.789-40.4648 272.438-40.7227 272.15-41.0391 271.928-41.4141 271.705-41.7891 271.529-42.2051 271.4-42.6621 271.271-43.1191 271.131-43.5352 270.979-43.9102 270.826-44.2852 270.621-44.6016 270.363-44.8594 270.105-45.1172 269.742-45.2461 269.273-45.2461 268.805-45.2461 268.271-45.1875 267.674-45.0703 267.076-44.9531 266.508-44.7539 265.969-44.4727 264.539-43.7227 263.215-42.8848 261.996-41.959 260.777-41.0332 259.646-39.8555 258.604-38.4258 257.561-36.9961 256.6-35.25 255.721-33.1875 254.842-31.125 254.027-28.582 253.277-25.5586 253.254-25.5117 253.23-25.4531 253.207-25.3828 253.184-25.3125 253.172-25.2656 253.172-25.2422 253.172-25.1953 253.266-25.1719 253.453-25.1719 254.156-25.1719 254.83-25.2129 255.475-25.2949 256.119-25.377 256.758-25.4707 257.391-25.5762 258.023-25.6816 258.662-25.7754 259.307-25.8574 259.951-25.9395 260.637-25.9805 261.363-25.9805 261.902-25.9805 262.406-25.957 262.875-25.9102 263.344-25.8633 263.748-25.7637 264.088-25.6113 264.428-25.459 264.697-25.2422 264.896-24.9609 265.096-24.6797 265.195-24.3047 265.195-23.8359 265.195-23.5547 265.154-23.209 265.072-22.7988 264.99-22.3887 264.861-21.9902 264.686-21.6035 264.51-21.2168 264.287-20.8711 264.018-20.5664 263.748-20.2617 263.414-20.0742 263.016-20.0039 262.312-19.8633 261.586-19.752 260.836-19.6699 260.086-19.5879 259.266-19.4941 258.375-19.3887 257.484-19.2832 256.5-19.1309 255.422-18.9316 254.344-18.7324 253.137-18.4453 251.801-18.0703 251.379-16.4766 251.057-14.9004 250.834-13.3418 250.611-11.7832 250.418-10.2305 250.254-8.68359 250.09-7.13672 249.908-5.58398 249.709-4.02539 249.51-2.4668 249.223-0.902344 248.848 0.667969 248.777 0.972656 248.654 1.27734 248.479 1.58203 248.303 1.88672 248.092 2.16211 247.846 2.4082 247.6 2.6543 247.318 2.85352 247.002 3.00586 246.686 3.1582 246.352 3.23437 246 3.23438Z" transform="translate(47.999 87)"/></g></g><text font-family="MV Boli,MV Boli_MSFontService,sans-serif" font-weight="400" font-size="72" transform="translate(463.889 482)">MeshInf</text></g></svg>